<svg xmlns="http://www.w3.org/2000/svg" xmlns:xlink="http://www.w3.org/1999/xlink" version="1.1" x="0px" y="0px" viewBox="-25.6 -51.2 563.2 691.2" enable-background="new 0 0 512 512" xml:space="preserve"><path d="M451,199.078v-33.723c0-16.969-14.77-31.855-31.609-31.855H406v10h13.391c11.512,0,21.609,10.211,21.609,21.855V198.5h-10  v-20c0-2.762-2.234-5-5-5h-22.5c0-15.086-5.215-28.957-13.871-40c-11.91-15.188-30.379-25-51.129-25s-39.219,9.813-51.129,25  c-8.656,11.043-13.871,24.914-13.871,40H246v-40v-95c0-2.762-2.238-5-5-5H91c-2.762,0-5,2.238-5,5v95v40H71v-15H61v15v5v5h45h30h60  h30h195v15H75.301h-8.496C55.137,198.5,46,189.609,46,178.262v-12.906c0-11.848,9.527-21.855,20.805-21.855H76v-10h-9.195  C50.105,133.5,36,148.086,36,165.355v6.449v6.457V433.5c0,24.813,20.188,45,45,45h390c2.766,0,5-2.234,5-5v-80v-110v-53.629  C476,214.598,465.219,201.852,451,199.078z M136.453,173.5c2.391-14.164,14.711-25,29.547-25s27.156,10.836,29.547,25H136.453z   M216,173.5h-10.309c-2.473-19.703-19.332-35-39.691-35s-37.219,15.297-39.691,35H116V89.664  c13.723-2.07,24.293-12.551,26.395-26.164h48.77c1.871,13.949,11.535,24.117,24.836,26.156V173.5z M236,173.5h-10v-95h-5  c-11.871,0-20-7.32-20-20v-5h-70v5c0,12.074-7.789,20-20,20h-5v95H96v-130h140V173.5z M283.5,173.5c0-30.328,24.672-55,55-55  s55,24.672,55,55H283.5z M466,388.5H321c-13.785,0-25-11.215-25-25v-50c0-13.785,11.215-25,25-25h145V388.5z M466,258.5v20H321  c-19.297,0-35,15.703-35,35v50c0,19.297,15.703,35,35,35h145v20v50H81c-19.301,0-35-15.703-35-35v-15v-160v-57.805  c5.445,4.855,12.699,7.805,20.805,7.805h6.453h371.938c11.273,0,20.805,9.789,20.805,21.371V258.5z"/><rect x="406" y="333.5" width="10" height="10"/><rect x="386" y="333.5" width="10" height="10"/><rect x="426" y="333.5" width="10" height="10"/><rect x="446" y="333.5" width="10" height="10"/><rect x="256" y="133.5" width="15" height="10"/><path d="M306,338.5c0,19.297,15.703,35,35,35s35-15.703,35-35s-15.703-35-35-35S306,319.203,306,338.5z M341,313.5  c13.785,0,25,11.215,25,25s-11.215,25-25,25s-25-11.215-25-25S327.215,313.5,341,313.5z"/><path d="M373.141,150.992l-8.656,5.016c0.883,1.512,1.625,3.102,2.219,4.734c0.59,1.629,1.047,3.324,1.348,5.043l9.848-1.73  c-0.406-2.293-1.008-4.563-1.801-6.734C375.305,155.141,374.313,153.016,373.141,150.992z"/><path d="M352.18,133.398c-2.195-0.797-4.469-1.402-6.734-1.797c-4.555-0.801-9.348-0.797-13.879,0c-2.277,0.395-4.551,1-6.758,1.801  c-2.188,0.801-4.316,1.793-6.316,2.953c-2.023,1.176-3.945,2.523-5.703,4.004c-1.773,1.484-3.43,3.145-4.922,4.93  c-1.496,1.77-2.844,3.688-4.008,5.703c-1.172,2.023-2.164,4.148-2.957,6.32c-0.793,2.18-1.395,4.449-1.801,6.742l9.848,1.73  c0.301-1.719,0.758-3.414,1.352-5.051c0.59-1.625,1.332-3.215,2.215-4.73c0.875-1.512,1.883-2.953,3.008-4.285  c1.121-1.34,2.359-2.586,3.699-3.703c1.316-1.113,2.762-2.125,4.281-3.008c1.5-0.867,3.09-1.609,4.727-2.207  c1.645-0.598,3.348-1.055,5.055-1.348c3.414-0.602,7.004-0.605,10.441,0c1.695,0.293,3.398,0.75,5.039,1.344  c1.641,0.602,3.23,1.344,4.727,2.211c1.523,0.883,2.969,1.895,4.285,3.008l6.441-7.652c-1.766-1.484-3.688-2.832-5.711-4.008  C356.508,135.195,354.379,134.203,352.18,133.398z"/><text x="0.0" y="601.6" font-size="25.6" font-weight="bold" font-family="Arbeit Regular, Helvetica, Arial-Unicode, Arial, Sans-serif" fill="#000000">Created by Rafiico Creative Studio</text><text x="0.0" y="627.2" font-size="25.6" font-weight="bold" font-family="Arbeit Regular, Helvetica, Arial-Unicode, Arial, Sans-serif" fill="#000000">from Noun Project</text></svg>